<?xml version="1.0" encoding="UTF-8"?>
<svg xmlns="http://www.w3.org/2000/svg" viewBox="0 0 16 16" width="16" height="16">
  <!-- Symbolic icon: monochrome, uses currentColor for GNOME theming -->

  <!-- Left speech bubble -->
  <path d="M 1 2.5 C 1 1.67, 1.67 1, 2.5 1 L 8.5 1 C 9.33 1, 10 1.67, 10 2.5 L 10 6.5 C 10 7.33, 9.33 8, 8.5 8 L 5 8 L 3.5 10 L 4 8 L 2.5 8 C 1.67 8, 1 7.33, 1 6.5 Z"
        fill="currentColor" fill-rule="evenodd" opacity="0.9"/>

  <!-- Right speech bubble -->
  <path d="M 6 4.5 C 6 3.67, 6.67 3, 7.5 3 L 13.5 3 C 14.33 3, 15 3.67, 15 4.5 L 15 8.5 C 15 9.33, 14.33 10, 13.5 10 L 11 10 L 12.5 12 L 10 10 L 7.5 10 C 6.67 10, 6 9.33, 6 8.5 Z"
        fill="currentColor" fill-rule="evenodd" opacity="0.6"/>

  <!-- Pen -->
  <g transform="translate(10.5, 9) rotate(45)">
    <rect x="-1" y="0" width="2" height="5" fill="currentColor"/>
    <polygon points="0,6 -1,5 1,5" fill="currentColor"/>
  </g>
</svg>
